<svg id="visual" viewBox="0 0 900 600" width="900" height="600" xmlns="http://www.w3.org/2000/svg" xmlns:xlink="http://www.w3.org/1999/xlink" version="1.1"><rect x="0" y="0" width="900" height="600" fill="#ffffff"></rect><defs><linearGradient id="grad1_0" x1="33.3%" y1="0%" x2="100%" y2="100%"><stop offset="20%" stop-color="#e0e0e0" stop-opacity="1"></stop><stop offset="80%" stop-color="#e0e0e0" stop-opacity="1"></stop></linearGradient></defs><defs><linearGradient id="grad1_1" x1="33.3%" y1="0%" x2="100%" y2="100%"><stop offset="20%" stop-color="#e0e0e0" stop-opacity="1"></stop><stop offset="80%" stop-color="#eaeaea" stop-opacity="1"></stop></linearGradient></defs><defs><linearGradient id="grad1_2" x1="33.3%" y1="0%" x2="100%" y2="100%"><stop offset="20%" stop-color="#f5f5f5" stop-opacity="1"></stop><stop offset="80%" stop-color="#eaeaea" stop-opacity="1"></stop></linearGradient></defs><defs><linearGradient id="grad1_3" x1="33.3%" y1="0%" x2="100%" y2="100%"><stop offset="20%" stop-color="#f5f5f5" stop-opacity="1"></stop><stop offset="80%" stop-color="#ffffff" stop-opacity="1"></stop></linearGradient></defs><defs><linearGradient id="grad2_0" x1="0%" y1="0%" x2="66.7%" y2="100%"><stop offset="20%" stop-color="#e0e0e0" stop-opacity="1"></stop><stop offset="80%" stop-color="#e0e0e0" stop-opacity="1"></stop></linearGradient></defs><defs><linearGradient id="grad2_1" x1="0%" y1="0%" x2="66.7%" y2="100%"><stop offset="20%" stop-color="#eaeaea" stop-opacity="1"></stop><stop offset="80%" stop-color="#e0e0e0" stop-opacity="1"></stop></linearGradient></defs><defs><linearGradient id="grad2_2" x1="0%" y1="0%" x2="66.7%" y2="100%"><stop offset="20%" stop-color="#eaeaea" stop-opacity="1"></stop><stop offset="80%" stop-color="#f5f5f5" stop-opacity="1"></stop></linearGradient></defs><defs><linearGradient id="grad2_3" x1="0%" y1="0%" x2="66.7%" y2="100%"><stop offset="20%" stop-color="#ffffff" stop-opacity="1"></stop><stop offset="80%" stop-color="#f5f5f5" stop-opacity="1"></stop></linearGradient></defs><g transform="translate(900, 0)"><path d="M0 324.5C-40.3 316 -80.6 307.6 -121.7 293.8C-162.8 280 -204.6 260.9 -229.5 229.5C-254.3 198 -262.3 154.3 -275.3 114C-288.3 73.7 -306.4 36.9 -324.5 0L0 0Z" fill="#fafafa"></path><path d="M0 243.4C-30.2 237 -60.5 230.7 -91.3 220.3C-122.1 210 -153.4 195.7 -172.1 172.1C-190.8 148.5 -196.7 115.7 -206.5 85.5C-216.3 55.3 -229.8 27.7 -243.4 0L0 0Z" fill="#efefef"></path><path d="M0 162.2C-20.2 158 -40.3 153.8 -60.8 146.9C-81.4 140 -102.3 130.4 -114.7 114.7C-127.2 99 -131.1 77.2 -137.7 57C-144.2 36.9 -153.2 18.4 -162.2 0L0 0Z" fill="#e5e5e5"></path><path d="M0 81.1C-10.1 79 -20.2 76.9 -30.4 73.4C-40.7 70 -51.1 65.2 -57.4 57.4C-63.6 49.5 -65.6 38.6 -68.8 28.5C-72.1 18.4 -76.6 9.2 -81.1 0L0 0Z" fill="#e0e0e0"></path></g><g transform="translate(0, 600)"><path d="M0 -324.5C36.3 -307.4 72.6 -290.3 115.2 -278.1C157.8 -265.9 206.6 -258.5 229.5 -229.5C252.3 -200.4 249 -149.8 260.5 -107.9C272 -66.1 298.3 -33 324.5 0L0 0Z" fill="#fafafa"></path><path d="M0 -243.4C27.2 -230.6 54.5 -217.7 86.4 -208.6C118.3 -199.4 155 -193.9 172.1 -172.1C189.2 -150.3 186.8 -112.3 195.4 -80.9C204 -49.5 223.7 -24.8 243.4 0L0 0Z" fill="#efefef"></path><path d="M0 -162.2C18.2 -153.7 36.3 -145.2 57.6 -139C78.9 -132.9 103.3 -129.2 114.7 -114.7C126.1 -100.2 124.5 -74.9 130.3 -54C136 -33 149.1 -16.5 162.2 0L0 0Z" fill="#e5e5e5"></path><path d="M0 -81.1C9.1 -76.9 18.2 -72.6 28.8 -69.5C39.4 -66.5 51.7 -64.6 57.4 -57.4C63.1 -50.1 62.3 -37.4 65.1 -27C68 -16.5 74.6 -8.3 81.1 0L0 0Z" fill="#e0e0e0"></path></g></svg>